<svg id="visual" viewBox="0 0 900 600" width="900" height="600" xmlns="http://www.w3.org/2000/svg" xmlns:xlink="http://www.w3.org/1999/xlink" version="1.1"><rect x="0" y="0" width="900" height="600" fill="#252525"></rect><g transform="translate(480.6243496740192 220.67495920601718)"><path d="M196.7 -278.6C281 -252 393.4 -241.5 402.4 -192.4C411.4 -143.3 317.1 -55.6 276.1 20.4C235.1 96.4 247.6 160.9 237 246C226.5 331.2 193 437.1 121.5 495.5C50 553.9 -59.5 564.8 -151.4 530.8C-243.2 496.9 -317.3 418 -365.7 333.1C-414.1 248.2 -436.7 157.1 -451.6 63.9C-466.6 -29.2 -473.9 -124.5 -440.7 -202.9C-407.5 -281.4 -333.8 -343 -253.6 -371.6C-173.4 -400.1 -86.7 -395.5 -15.2 -371.9C56.2 -348.2 112.5 -305.3 196.7 -278.6" fill="#020202"></path></g></svg>